<svg xmlns="http://www.w3.org/2000/svg" xmlns:xlink="http://www.w3.org/1999/xlink" width="500" zoomAndPan="magnify" viewBox="0 0 375 374.999991" height="500" preserveAspectRatio="xMidYMid meet" version="1.0"><defs><g/><clipPath id="ad7c32e217"><path d="M 125 97.828125 L 250 97.828125 L 250 234.976562 L 125 234.976562 Z M 125 97.828125 " clip-rule="nonzero"/></clipPath><clipPath id="602aba02ef"><path d="M 147.117188 124.617188 L 216 124.617188 L 216 176 L 147.117188 176 Z M 147.117188 124.617188 " clip-rule="nonzero"/></clipPath><clipPath id="565cbda5bd"><path d="M 147.117188 189 L 174 189 L 174 202 L 147.117188 202 Z M 147.117188 189 " clip-rule="nonzero"/></clipPath><clipPath id="52878076c3"><path d="M 189 188 L 206 188 L 206 202.777344 L 189 202.777344 Z M 189 188 " clip-rule="nonzero"/></clipPath><clipPath id="844e387636"><path d="M 197 149 L 239.285156 149 L 239.285156 179 L 197 179 Z M 197 149 " clip-rule="nonzero"/></clipPath></defs><g clip-path="url(#ad7c32e217)"><path fill="#ff3131" d="M 187.539062 234.792969 L 186.988281 234.628906 C 169.902344 229.289062 156.125 219.785156 145.964844 206.394531 C 137.886719 195.714844 132.105469 182.539062 128.820312 167.285156 C 123.234375 141.40625 126.65625 118.757812 126.820312 117.796875 L 126.984375 116.675781 L 187.511719 97.859375 L 248.035156 116.675781 L 248.199219 117.796875 C 248.335938 118.757812 251.761719 141.40625 246.199219 167.285156 C 242.914062 182.539062 237.136719 195.714844 229.054688 206.394531 C 218.921875 219.785156 205.121094 229.289062 188.03125 234.628906 Z M 130.246094 119.441406 C 129.613281 124.316406 127.585938 144.527344 132.378906 166.628906 C 135.558594 181.363281 141.117188 194.015625 148.894531 204.257812 C 158.453125 216.882812 171.460938 225.894531 187.539062 231.015625 C 203.640625 225.867188 216.648438 216.855469 226.207031 204.203125 C 233.984375 193.933594 239.519531 181.253906 242.695312 166.519531 C 247.460938 144.445312 245.433594 124.289062 244.804688 119.441406 L 187.511719 101.640625 Z M 130.246094 119.441406 " fill-opacity="1" fill-rule="nonzero"/></g><g clip-path="url(#602aba02ef)"><path fill="#ff0505" d="M 196.253906 175.960938 L 152.832031 175.960938 C 149.683594 175.960938 147.117188 173.398438 147.117188 170.242188 L 147.117188 130.574219 C 147.117188 127.417969 149.683594 124.855469 152.832031 124.855469 L 209.726562 124.855469 C 212.875 124.855469 215.445312 127.417969 215.445312 130.574219 L 215.445312 145.511719 C 215.445312 145.917969 215.113281 146.246094 214.707031 146.246094 C 214.300781 146.246094 213.96875 145.917969 213.96875 145.511719 L 213.96875 130.574219 C 213.96875 128.230469 212.066406 126.324219 209.726562 126.324219 L 152.832031 126.324219 C 150.496094 126.324219 148.589844 128.230469 148.589844 130.574219 L 148.589844 170.242188 C 148.589844 172.582031 150.496094 174.488281 152.832031 174.488281 L 196.253906 174.488281 C 196.660156 174.488281 196.988281 174.816406 196.988281 175.222656 C 196.988281 175.628906 196.660156 175.960938 196.253906 175.960938 " fill-opacity="1" fill-rule="nonzero"/></g><path fill="#ff0505" d="M 196.253906 183.640625 L 161.191406 183.640625 C 160.945312 183.640625 160.71875 183.519531 160.582031 183.320312 C 160.445312 183.117188 160.417969 182.863281 160.507812 182.636719 L 163.546875 174.953125 C 163.695312 174.578125 164.121094 174.394531 164.5 174.539062 C 164.878906 174.691406 165.0625 175.117188 164.914062 175.492188 L 162.273438 182.171875 L 196.253906 182.171875 C 196.660156 182.171875 196.988281 182.5 196.988281 182.90625 C 196.988281 183.3125 196.660156 183.640625 196.253906 183.640625 " fill-opacity="1" fill-rule="nonzero"/><g clip-path="url(#565cbda5bd)"><path fill="#ff0505" d="M 150.378906 191.460938 C 149.390625 191.460938 148.589844 192.261719 148.589844 193.25 L 148.589844 198.28125 C 148.589844 199.273438 149.390625 200.074219 150.378906 200.074219 L 171.800781 200.074219 L 171.800781 191.460938 Z M 172.535156 201.546875 L 150.378906 201.546875 C 148.582031 201.546875 147.117188 200.082031 147.117188 198.28125 L 147.117188 193.25 C 147.117188 191.453125 148.582031 189.988281 150.378906 189.988281 L 172.535156 189.988281 C 172.941406 189.988281 173.269531 190.316406 173.269531 190.722656 L 173.269531 200.8125 C 173.269531 201.21875 172.941406 201.546875 172.535156 201.546875 " fill-opacity="1" fill-rule="nonzero"/></g><path fill="#ff0505" d="M 190.128906 198.71875 L 172.535156 198.71875 C 172.128906 198.71875 171.800781 198.390625 171.800781 197.984375 C 171.800781 197.578125 172.128906 197.246094 172.535156 197.246094 L 189.390625 197.246094 L 189.390625 194.289062 L 172.535156 194.289062 C 172.128906 194.289062 171.800781 193.957031 171.800781 193.550781 C 171.800781 193.144531 172.128906 192.816406 172.535156 192.816406 L 190.128906 192.816406 C 190.535156 192.816406 190.863281 193.144531 190.863281 193.550781 L 190.863281 197.984375 C 190.863281 198.390625 190.535156 198.71875 190.128906 198.71875 " fill-opacity="1" fill-rule="nonzero"/><g clip-path="url(#52878076c3)"><path fill="#ff0505" d="M 197.335938 202.621094 C 197.21875 202.621094 197.097656 202.585938 196.988281 202.53125 L 189.78125 198.632812 C 189.421875 198.4375 189.289062 197.992188 189.484375 197.636719 C 189.675781 197.277344 190.121094 197.144531 190.480469 197.335938 L 197.386719 201.074219 L 204.3125 198.324219 L 204.3125 193.207031 L 197.386719 190.460938 L 190.480469 194.199219 C 190.121094 194.390625 189.675781 194.257812 189.484375 193.902344 C 189.289062 193.542969 189.421875 193.097656 189.78125 192.902344 L 196.988281 189.003906 C 197.179688 188.898438 197.410156 188.890625 197.609375 188.96875 L 205.320312 192.023438 C 205.601562 192.136719 205.785156 192.40625 205.785156 192.707031 L 205.785156 198.824219 C 205.785156 199.128906 205.601562 199.398438 205.320312 199.507812 L 197.609375 202.566406 C 197.519531 202.601562 197.429688 202.621094 197.335938 202.621094 " fill-opacity="1" fill-rule="nonzero"/></g><path fill="#ff0505" d="M 219.769531 192.605469 C 218.332031 192.605469 217.046875 191.578125 216.765625 190.117188 L 216.25 187.386719 C 213.789062 187.105469 211.414062 186.277344 209.316406 184.964844 L 207.210938 186.78125 C 205.933594 187.882812 204 187.738281 202.894531 186.460938 L 200.496094 183.679688 C 199.964844 183.058594 199.703125 182.273438 199.765625 181.457031 C 199.824219 180.640625 200.199219 179.898438 200.816406 179.367188 L 202.914062 177.558594 C 201.925781 175.289062 201.453125 172.8125 201.542969 170.335938 L 198.925781 169.421875 C 198.15625 169.152344 197.535156 168.597656 197.179688 167.867188 C 196.824219 167.128906 196.777344 166.296875 197.046875 165.527344 L 197.578125 164.003906 C 197.714844 163.617188 198.132812 163.417969 198.515625 163.550781 C 198.898438 163.683594 199.101562 164.105469 198.96875 164.484375 L 198.433594 166.011719 C 198.296875 166.414062 198.320312 166.84375 198.503906 167.226562 C 198.6875 167.605469 199.007812 167.894531 199.410156 168.035156 L 202.550781 169.128906 C 202.863281 169.238281 203.066406 169.546875 203.042969 169.875 C 202.859375 172.476562 203.351562 175.09375 204.476562 177.4375 C 204.617188 177.738281 204.542969 178.097656 204.292969 178.3125 L 201.777344 180.480469 C 201.457031 180.757812 201.261719 181.144531 201.230469 181.5625 C 201.199219 181.988281 201.335938 182.398438 201.613281 182.71875 L 204.011719 185.5 C 204.582031 186.164062 205.589844 186.238281 206.25 185.667969 L 208.773438 183.496094 C 209.023438 183.277344 209.386719 183.253906 209.660156 183.441406 C 211.824219 184.894531 214.332031 185.769531 216.925781 185.972656 C 217.257812 186 217.53125 186.246094 217.589844 186.570312 L 218.210938 189.84375 C 218.375 190.703125 219.210938 191.269531 220.070312 191.105469 L 223.679688 190.417969 C 224.539062 190.253906 225.101562 189.421875 224.941406 188.5625 L 224.320312 185.300781 C 224.257812 184.976562 224.421875 184.648438 224.722656 184.5 C 227.058594 183.367188 229.074219 181.625 230.542969 179.472656 C 230.734375 179.199219 231.082031 179.082031 231.394531 179.195312 L 234.535156 180.289062 C 235.363281 180.578125 236.269531 180.140625 236.558594 179.3125 L 237.089844 177.789062 C 237.222656 177.402344 237.644531 177.203125 238.023438 177.335938 C 238.410156 177.472656 238.609375 177.886719 238.476562 178.273438 L 237.945312 179.796875 C 237.390625 181.390625 235.644531 182.234375 234.050781 181.679688 L 231.433594 180.765625 C 229.960938 182.761719 228.054688 184.410156 225.871094 185.570312 L 226.386719 188.285156 C 226.699219 189.941406 225.609375 191.546875 223.953125 191.863281 L 220.339844 192.550781 C 220.152344 192.585938 219.957031 192.605469 219.769531 192.605469 " fill-opacity="1" fill-rule="nonzero"/><g clip-path="url(#844e387636)"><path fill="#ff0505" d="M 237.785156 178.765625 C 237.703125 178.765625 237.621094 178.75 237.542969 178.726562 C 237.15625 178.589844 236.957031 178.171875 237.089844 177.789062 L 237.621094 176.261719 C 237.761719 175.863281 237.738281 175.433594 237.554688 175.050781 C 237.371094 174.667969 237.046875 174.382812 236.648438 174.242188 L 233.503906 173.144531 C 233.191406 173.035156 232.988281 172.730469 233.011719 172.402344 C 233.199219 169.796875 232.703125 167.183594 231.582031 164.835938 C 231.441406 164.539062 231.515625 164.179688 231.765625 163.964844 L 234.28125 161.796875 C 234.941406 161.222656 235.019531 160.21875 234.445312 159.558594 L 232.042969 156.769531 C 231.476562 156.113281 230.46875 156.039062 229.808594 156.609375 L 227.285156 158.78125 C 227.035156 158.996094 226.667969 159.019531 226.394531 158.835938 C 224.238281 157.382812 221.726562 156.507812 219.128906 156.300781 C 218.800781 156.273438 218.527344 156.03125 218.46875 155.707031 L 217.847656 152.433594 C 217.683594 151.574219 216.851562 151.007812 215.992188 151.171875 L 212.378906 151.859375 C 211.960938 151.9375 211.601562 152.175781 211.363281 152.523438 C 211.125 152.875 211.035156 153.296875 211.117188 153.714844 L 211.734375 156.972656 C 211.796875 157.300781 211.636719 157.628906 211.335938 157.773438 C 209 158.910156 206.984375 160.652344 205.511719 162.800781 C 205.324219 163.078125 204.976562 163.191406 204.664062 163.082031 L 201.519531 161.984375 C 200.695312 161.699219 199.789062 162.136719 199.5 162.960938 L 198.96875 164.488281 C 198.832031 164.871094 198.414062 165.074219 198.03125 164.9375 C 197.644531 164.804688 197.445312 164.382812 197.578125 164.003906 L 198.109375 162.480469 C 198.667969 160.886719 200.414062 160.042969 202.003906 160.597656 L 204.625 161.511719 C 206.097656 159.515625 208.003906 157.867188 210.191406 156.707031 L 209.671875 153.988281 C 209.515625 153.1875 209.6875 152.375 210.144531 151.695312 C 210.605469 151.019531 211.300781 150.566406 212.105469 150.414062 L 215.71875 149.726562 C 217.375 149.410156 218.976562 150.503906 219.292969 152.160156 L 219.808594 154.890625 C 222.269531 155.171875 224.644531 156 226.742188 157.308594 L 228.847656 155.496094 C 230.125 154.394531 232.058594 154.539062 233.160156 155.8125 L 235.5625 158.597656 C 236.660156 159.875 236.519531 161.808594 235.242188 162.910156 L 233.144531 164.714844 C 234.132812 166.984375 234.601562 169.457031 234.511719 171.941406 L 237.132812 172.855469 C 237.902344 173.125 238.519531 173.671875 238.875 174.410156 C 239.234375 175.148438 239.28125 175.976562 239.011719 176.75 L 238.476562 178.273438 C 238.375 178.574219 238.089844 178.765625 237.785156 178.765625 " fill-opacity="1" fill-rule="nonzero"/></g><path fill="#ff0505" d="M 218.023438 161.878906 C 216.648438 161.878906 215.277344 162.1875 214.003906 162.800781 C 211.777344 163.878906 210.101562 165.753906 209.289062 168.089844 C 207.609375 172.90625 210.160156 178.195312 214.980469 179.878906 C 217.3125 180.691406 219.824219 180.546875 222.054688 179.472656 C 224.277344 178.398438 225.953125 176.523438 226.769531 174.1875 C 227.582031 171.855469 227.4375 169.339844 226.363281 167.113281 C 225.289062 164.886719 223.414062 163.210938 221.078125 162.398438 C 220.078125 162.050781 219.046875 161.878906 218.023438 161.878906 Z M 218.035156 181.871094 C 216.847656 181.871094 215.652344 181.667969 214.496094 181.265625 C 208.910156 179.316406 205.953125 173.1875 207.902344 167.601562 C 208.84375 164.898438 210.785156 162.722656 213.363281 161.480469 C 215.945312 160.234375 218.855469 160.066406 221.5625 161.011719 C 224.265625 161.953125 226.441406 163.894531 227.6875 166.472656 C 228.933594 169.054688 229.097656 171.964844 228.15625 174.667969 C 227.210938 177.378906 225.273438 179.550781 222.691406 180.796875 C 221.214844 181.511719 219.628906 181.871094 218.035156 181.871094 " fill-opacity="1" fill-rule="nonzero"/><path fill="#ff3131" d="M 211.71875 173.023438 C 212.65625 170.339844 215.191406 168.542969 218.03125 168.542969 C 218.773438 168.542969 219.515625 168.667969 220.230469 168.914062 C 221.914062 169.503906 223.269531 170.714844 224.046875 172.320312 C 224.183594 172.601562 224.289062 172.890625 224.382812 173.179688 C 224.914062 171.542969 224.796875 169.789062 224.046875 168.234375 C 223.269531 166.625 221.914062 165.417969 220.230469 164.832031 C 219.515625 164.578125 218.773438 164.453125 218.03125 164.453125 C 215.191406 164.453125 212.65625 166.253906 211.71875 168.9375 C 211.234375 170.324219 211.230469 171.804688 211.675781 173.179688 C 211.6875 173.128906 211.703125 173.078125 211.71875 173.023438 " fill-opacity="1" fill-rule="nonzero"/><path fill="#ff3131" d="M 151.164062 130.574219 L 151.164062 149.976562 L 170.273438 128.902344 L 152.832031 128.902344 C 151.914062 128.902344 151.164062 129.648438 151.164062 130.574219 " fill-opacity="1" fill-rule="nonzero"/><g fill="#ff0505" fill-opacity="1"><g transform="translate(119.748347, 257.499666)"><g><path d="M 3.25 0 L 1.015625 -2.25 L 1.015625 -12.65625 L 3.25 -14.90625 L 10.921875 -14.90625 L 13.1875 -12.65625 L 13.1875 -9.640625 L 9.5 -9.640625 L 9.5 -11.328125 L 8.78125 -12.03125 L 5.515625 -12.03125 L 4.796875 -11.328125 L 4.796875 -3.578125 L 5.515625 -2.875 L 8.890625 -2.875 L 9.640625 -3.578125 L 9.640625 -5.28125 L 13.296875 -5.28125 L 13.296875 -2.25 L 11.0625 0 Z M 3.25 0 "/></g></g></g><g fill="#ff0505" fill-opacity="1"><g transform="translate(133.29523, 257.499666)"><g><path d="M 4.96875 0 L 4.96875 -5.21875 L 3.484375 -6.515625 L 0 -14.90625 L 4.34375 -14.90625 L 6.484375 -8.046875 L 7.21875 -8.046875 L 9.359375 -14.90625 L 13.703125 -14.90625 L 10.234375 -6.515625 L 8.734375 -5.21875 L 8.734375 0 Z M 4.96875 0 "/></g></g></g><g fill="#ff0505" fill-opacity="1"><g transform="translate(147.003866, 257.499666)"><g><path d="M 1.421875 0 L 1.421875 -14.90625 L 11.359375 -14.90625 L 13.609375 -12.65625 L 13.609375 -9.078125 L 12.59375 -8.046875 L 14.1875 -6.546875 L 14.1875 -2.25 L 11.953125 0 Z M 5.203125 -9.125 L 9.28125 -9.125 L 9.984375 -9.828125 L 9.984375 -11.328125 L 9.28125 -12.03125 L 5.203125 -12.03125 Z M 5.203125 -2.875 L 9.703125 -2.875 L 10.40625 -3.578125 L 10.40625 -5.78125 L 9.703125 -6.484375 L 5.203125 -6.484375 Z M 5.203125 -2.875 "/></g></g></g><g fill="#ff0505" fill-opacity="1"><g transform="translate(162.107622, 257.499666)"><g><path d="M 1.421875 0 L 1.421875 -14.90625 L 12.734375 -14.90625 L 12.734375 -11.828125 L 5.203125 -11.828125 L 5.203125 -9.078125 L 11.984375 -9.078125 L 11.984375 -6.234375 L 5.203125 -6.234375 L 5.203125 -3.078125 L 12.734375 -3.078125 L 12.734375 0 Z M 1.421875 0 "/></g></g></g><g fill="#ff0505" fill-opacity="1"><g transform="translate(175.856695, 257.499666)"><g><path d="M 1.421875 0 L 1.421875 -14.90625 L 11.5625 -14.90625 L 13.828125 -12.65625 L 13.828125 -7.3125 L 12.125 -5.625 L 14.390625 0 L 10.59375 0 L 8.640625 -5.078125 L 5.203125 -5.078125 L 5.203125 0 Z M 5.203125 -7.953125 L 9.4375 -7.953125 L 10.15625 -8.65625 L 10.15625 -11.328125 L 9.4375 -12.03125 L 5.203125 -12.03125 Z M 5.203125 -7.953125 "/></g></g></g><g fill="#ff0505" fill-opacity="1"><g transform="translate(190.859362, 257.499666)"><g><path d="M 1.3125 -4.28125 L 1.3125 -6.96875 L 7.984375 -6.96875 L 7.984375 -4.28125 Z M 1.3125 -4.28125 "/></g></g></g><g fill="#ff0505" fill-opacity="1"><g transform="translate(200.160211, 257.499666)"><g><path d="M 4.265625 0 L 4.265625 -11.828125 L 0.09375 -11.828125 L 0.09375 -14.90625 L 12.21875 -14.90625 L 12.21875 -11.828125 L 8.046875 -11.828125 L 8.046875 0 Z M 4.265625 0 "/></g></g></g><g fill="#ff0505" fill-opacity="1"><g transform="translate(212.473716, 257.499666)"><g><path d="M 1.421875 0 L 1.421875 -14.90625 L 12.734375 -14.90625 L 12.734375 -11.828125 L 5.203125 -11.828125 L 5.203125 -9.078125 L 11.984375 -9.078125 L 11.984375 -6.234375 L 5.203125 -6.234375 L 5.203125 -3.078125 L 12.734375 -3.078125 L 12.734375 0 Z M 1.421875 0 "/></g></g></g><g fill="#ff0505" fill-opacity="1"><g transform="translate(226.222789, 257.499666)"><g><path d="M 3.25 0 L 1.015625 -2.25 L 1.015625 -12.65625 L 3.25 -14.90625 L 10.921875 -14.90625 L 13.1875 -12.65625 L 13.1875 -9.640625 L 9.5 -9.640625 L 9.5 -11.328125 L 8.78125 -12.03125 L 5.515625 -12.03125 L 4.796875 -11.328125 L 4.796875 -3.578125 L 5.515625 -2.875 L 8.890625 -2.875 L 9.640625 -3.578125 L 9.640625 -5.28125 L 13.296875 -5.28125 L 13.296875 -2.25 L 11.0625 0 Z M 3.25 0 "/></g></g></g><g fill="#ff0505" fill-opacity="1"><g transform="translate(239.769671, 257.499666)"><g><path d="M 1.421875 0 L 1.421875 -14.90625 L 5.203125 -14.90625 L 5.203125 -9.359375 L 10.265625 -9.359375 L 10.265625 -14.90625 L 14.046875 -14.90625 L 14.046875 0 L 10.265625 0 L 10.265625 -6.40625 L 5.203125 -6.40625 L 5.203125 0 Z M 1.421875 0 "/></g></g></g><g fill="#ff0505" fill-opacity="1"><g transform="translate(90.76874, 274.640736)"><g><path d="M 1.015625 0 L 1.015625 -0.96875 L 5.21875 -0.96875 L 5.84375 -1.609375 L 5.84375 -3.3125 L 5.21875 -3.9375 L 1.921875 -3.9375 L 0.71875 -5.140625 L 0.71875 -7.3125 L 1.921875 -8.515625 L 6.453125 -8.515625 L 6.453125 -7.546875 L 2.390625 -7.546875 L 1.75 -6.921875 L 1.765625 -5.5 L 2.390625 -4.875 L 5.6875 -4.875 L 6.890625 -3.65625 L 6.890625 -1.21875 L 5.6875 0 Z M 1.015625 0 "/></g></g></g><g fill="#ff0505" fill-opacity="1"><g transform="translate(103.842612, 274.640736)"><g><path d="M 2.03125 0 L 0.8125 -1.21875 L 0.8125 -4.828125 L 2.03125 -6.046875 L 4.71875 -6.046875 L 5.9375 -4.828125 L 5.9375 -2.640625 L 1.828125 -2.640625 L 1.828125 -1.484375 L 2.46875 -0.84375 L 5.828125 -0.84375 L 5.828125 0 Z M 1.828125 -3.453125 L 4.921875 -3.453125 L 4.921875 -4.609375 L 4.28125 -5.234375 L 2.46875 -5.234375 L 1.828125 -4.609375 Z M 1.828125 -3.453125 "/></g></g></g><g fill="#ff0505" fill-opacity="1"><g transform="translate(116.048964, 274.640736)"><g><path d="M 2.03125 0 L 0.8125 -1.21875 L 0.8125 -4.828125 L 2.03125 -6.046875 L 4.78125 -6.046875 L 5.84375 -5 L 5.84375 -4.03125 L 4.828125 -4.03125 L 4.828125 -4.65625 L 4.25 -5.234375 L 2.46875 -5.234375 L 1.828125 -4.609375 L 1.828125 -1.484375 L 2.46875 -0.84375 L 5.796875 -0.84375 L 5.796875 0 Z M 2.03125 0 "/></g></g></g><g fill="#ff0505" fill-opacity="1"><g transform="translate(127.977698, 274.640736)"><g><path d="M 2.09375 0 L 0.890625 -1.21875 L 0.890625 -6.046875 L 1.90625 -6.046875 L 1.890625 -1.453125 L 2.515625 -0.8125 L 4.03125 -0.8125 L 5.21875 -2 L 5.21875 -6.046875 L 6.234375 -6.046875 L 6.234375 0 L 5.21875 0 L 5.21875 -0.9375 L 4.296875 0 Z M 2.09375 0 "/></g></g></g><g fill="#ff0505" fill-opacity="1"><g transform="translate(140.612023, 274.640736)"><g><path d="M 0.953125 0 L 0.953125 -6.046875 L 1.96875 -6.046875 L 1.96875 -4.953125 L 3.015625 -6.046875 L 4.5625 -6.046875 L 4.5625 -5.03125 L 3.0625 -5.03125 L 1.96875 -3.890625 L 1.96875 0 Z M 0.953125 0 "/></g></g></g><g fill="#ff0505" fill-opacity="1"><g transform="translate(150.771021, 274.640736)"><g><path d="M 0.953125 -6.703125 L 0.953125 -8.078125 L 1.96875 -8.078125 L 1.96875 -6.703125 Z M 0.953125 0 L 0.953125 -6.046875 L 1.96875 -6.046875 L 1.96875 0 Z M 0.953125 0 "/></g></g></g><g fill="#ff0505" fill-opacity="1"><g transform="translate(159.137147, 274.640736)"><g><path d="M 2.078125 0 L 1.015625 -1.046875 L 1.015625 -5.234375 L 0.375 -5.234375 L 0.375 -6.046875 L 1.046875 -6.046875 L 1.296875 -7.59375 L 2.03125 -7.59375 L 2.03125 -6.046875 L 3.3125 -6.046875 L 3.3125 -5.234375 L 2.03125 -5.234375 L 2.03125 -1.40625 L 2.578125 -0.84375 L 3.578125 -0.84375 L 3.578125 0 Z M 2.078125 0 "/></g></g></g><g fill="#ff0505" fill-opacity="1"><g transform="translate(168.474887, 274.640736)"><g><path d="M 1.984375 2.15625 L 3.0625 -0.421875 L 2.640625 -0.421875 L 0.15625 -6.046875 L 1.265625 -6.046875 L 3.21875 -1.421875 L 3.484375 -1.421875 L 5.265625 -6.046875 L 6.375 -6.046875 L 3 2.15625 Z M 1.984375 2.15625 "/></g></g></g><g fill="#ff0505" fill-opacity="1"><g transform="translate(180.473031, 274.640736)"><g/></g></g><g fill="#ff0505" fill-opacity="1"><g transform="translate(188.503707, 274.640736)"><g><path d="M 1.015625 0 L 1.015625 -0.96875 L 5.21875 -0.96875 L 5.84375 -1.609375 L 5.84375 -3.3125 L 5.21875 -3.9375 L 1.921875 -3.9375 L 0.71875 -5.140625 L 0.71875 -7.3125 L 1.921875 -8.515625 L 6.453125 -8.515625 L 6.453125 -7.546875 L 2.390625 -7.546875 L 1.75 -6.921875 L 1.765625 -5.5 L 2.390625 -4.875 L 5.6875 -4.875 L 6.890625 -3.65625 L 6.890625 -1.21875 L 5.6875 0 Z M 1.015625 0 "/></g></g></g><g fill="#ff0505" fill-opacity="1"><g transform="translate(201.57758, 274.640736)"><g><path d="M 2.03125 0 L 0.8125 -1.21875 L 0.8125 -4.828125 L 2.03125 -6.046875 L 4.890625 -6.046875 L 6.109375 -4.828125 L 6.109375 -1.21875 L 4.890625 0 Z M 2.46875 -0.8125 L 4.453125 -0.8125 L 5.09375 -1.453125 L 5.078125 -4.609375 L 4.453125 -5.234375 L 2.46875 -5.234375 L 1.828125 -4.609375 L 1.828125 -1.453125 Z M 2.46875 -0.8125 "/></g></g></g><g fill="#ff0505" fill-opacity="1"><g transform="translate(213.957433, 274.640736)"><g><path d="M 0.953125 0 L 0.953125 -8.515625 L 1.96875 -8.515625 L 1.96875 0 Z M 0.953125 0 "/></g></g></g><g fill="#ff0505" fill-opacity="1"><g transform="translate(222.323559, 274.640736)"><g><path d="M 2.09375 0 L 0.890625 -1.21875 L 0.890625 -6.046875 L 1.90625 -6.046875 L 1.890625 -1.453125 L 2.515625 -0.8125 L 4.03125 -0.8125 L 5.21875 -2 L 5.21875 -6.046875 L 6.234375 -6.046875 L 6.234375 0 L 5.21875 0 L 5.21875 -0.9375 L 4.296875 0 Z M 2.09375 0 "/></g></g></g><g fill="#ff0505" fill-opacity="1"><g transform="translate(234.957884, 274.640736)"><g><path d="M 2.078125 0 L 1.015625 -1.046875 L 1.015625 -5.234375 L 0.375 -5.234375 L 0.375 -6.046875 L 1.046875 -6.046875 L 1.296875 -7.59375 L 2.03125 -7.59375 L 2.03125 -6.046875 L 3.3125 -6.046875 L 3.3125 -5.234375 L 2.03125 -5.234375 L 2.03125 -1.40625 L 2.578125 -0.84375 L 3.578125 -0.84375 L 3.578125 0 Z M 2.078125 0 "/></g></g></g><g fill="#ff0505" fill-opacity="1"><g transform="translate(244.295624, 274.640736)"><g><path d="M 0.953125 -6.703125 L 0.953125 -8.078125 L 1.96875 -8.078125 L 1.96875 -6.703125 Z M 0.953125 0 L 0.953125 -6.046875 L 1.96875 -6.046875 L 1.96875 0 Z M 0.953125 0 "/></g></g></g><g fill="#ff0505" fill-opacity="1"><g transform="translate(252.66175, 274.640736)"><g><path d="M 2.03125 0 L 0.8125 -1.21875 L 0.8125 -4.828125 L 2.03125 -6.046875 L 4.890625 -6.046875 L 6.109375 -4.828125 L 6.109375 -1.21875 L 4.890625 0 Z M 2.46875 -0.8125 L 4.453125 -0.8125 L 5.09375 -1.453125 L 5.078125 -4.609375 L 4.453125 -5.234375 L 2.46875 -5.234375 L 1.828125 -4.609375 L 1.828125 -1.453125 Z M 2.46875 -0.8125 "/></g></g></g><g fill="#ff0505" fill-opacity="1"><g transform="translate(265.041603, 274.640736)"><g><path d="M 0.953125 0 L 0.953125 -6.046875 L 1.96875 -6.046875 L 1.96875 -4.953125 L 3.015625 -6.046875 L 5.25 -6.046875 L 6.453125 -4.828125 L 6.453125 0 L 5.4375 0 L 5.4375 -4.578125 L 4.828125 -5.234375 L 3.28125 -5.234375 L 1.96875 -3.890625 L 1.96875 0 Z M 0.953125 0 "/></g></g></g><g fill="#ff0505" fill-opacity="1"><g transform="translate(277.849438, 274.640736)"><g><path d="M 0.953125 0 L 0.953125 -0.84375 L 4.15625 -0.84375 L 4.6875 -1.40625 L 4.6875 -2.125 L 4.109375 -2.703125 L 1.71875 -2.703125 L 0.65625 -3.75 L 0.65625 -4.96875 L 1.71875 -6.046875 L 5.140625 -6.046875 L 5.140625 -5.1875 L 2.203125 -5.1875 L 1.671875 -4.671875 L 1.671875 -4.078125 L 2.234375 -3.53125 L 4.640625 -3.53125 L 5.71875 -2.484375 L 5.71875 -1.0625 L 4.65625 0 Z M 0.953125 0 "/></g></g></g></svg>